<?xml version="1.0" encoding="UTF-8" standalone="no"?>
<!-- Created with Inkscape (http://www.inkscape.org/) -->
<svg xmlns:dc="http://purl.org/dc/elements/1.1/" xmlns:cc="http://creativecommons.org/ns#" xmlns:rdf="http://www.w3.org/1999/02/22-rdf-syntax-ns#" xmlns:svg="http://www.w3.org/2000/svg" xmlns="http://www.w3.org/2000/svg" xmlns:xlink="http://www.w3.org/1999/xlink" xmlns:sodipodi="http://sodipodi.sourceforge.net/DTD/sodipodi-0.dtd" xmlns:inkscape="http://www.inkscape.org/namespaces/inkscape" width="1014.2885" height="210.91968" id="svg2" version="1.1" inkscape:version="0.48.0 r9654" sodipodi:docname="Botón Descargas.svg">
  <defs id="defs4">
    <linearGradient id="linearGradient3757">
      <stop style="stop-color:#ff9b25;stop-opacity:1" offset="0" id="stop3759"/>
      <stop style="stop-color:#e15300;stop-opacity:1" offset="1" id="stop3761"/>
    </linearGradient>
    <linearGradient inkscape:collect="always" xlink:href="#linearGradient3757" id="linearGradient3763" x1="599.86218" y1="389.53708" x2="599.86218" y2="546.21069" gradientUnits="userSpaceOnUse"/>
    <radialGradient inkscape:collect="always" xlink:href="#XMLID_2_" id="radialGradient3828" gradientUnits="userSpaceOnUse" cx="46.063999" cy="16.075199" r="107.2917" gradientTransform="translate(-53.421602,-1.11295)"/>
    <radialGradient r="107.2917" id="XMLID_2_" gradientUnits="userSpaceOnUse" cy="16.075199" cx="46.063999">
      <stop style="stop-color:#D1F593" offset="0" id="stop6"/>
      <stop style="stop-color:#7dce00;stop-opacity:1;" offset="1" id="stop8"/>
    </radialGradient>
    <radialGradient r="107.2917" cy="25.349768" cx="3.8976762" gradientTransform="matrix(-0.9447681,0.88391546,-0.92187986,-0.9853462,197.76856,333.97167)" gradientUnits="userSpaceOnUse" id="radialGradient3845" xlink:href="#XMLID_2_" inkscape:collect="always" fx="3.8976762" fy="25.349768"/>
  </defs>
  <sodipodi:namedview id="base" pagecolor="#ffffff" bordercolor="#666666" borderopacity="1.0" inkscape:pageopacity="0.0" inkscape:pageshadow="2" inkscape:zoom="0.98994949" inkscape:cx="498.20476" inkscape:cy="85.999215" inkscape:document-units="px" inkscape:current-layer="layer1" showgrid="false" fit-margin-top="0" fit-margin-left="0" fit-margin-right="0" fit-margin-bottom="0" inkscape:window-width="1920" inkscape:window-height="1031" inkscape:window-x="-4" inkscape:window-y="-4" inkscape:window-maximized="1"/>
  <g inkscape:label="Capa 1" inkscape:groupmode="layer" id="layer1" transform="translate(-48.57143,-335.72821)">
    <rect style="fill:url(#linearGradient3763);fill-opacity:1;fill-rule:evenodd;stroke:none" id="rect2987" width="1014.2885" height="157.14285" x="48.57143" y="389.50504" ry="78.571426"/>
    <g transform="scale(0.97415745,1.0265281)" style="font-size:185.06544495px;font-style:normal;font-variant:normal;font-weight:bold;font-stretch:normal;line-height:125%;letter-spacing:0px;word-spacing:0px;fill:#e25501;fill-opacity:1;stroke:none;font-family:Sony Sketch EF;-inkscape-font-specification:Sony Sketch EF Bold" id="text3791">
      <path d="m 395.84095,469.47134 c -1e-4,6.73967 -2.46534,12.1069 -7.39573,16.10174 -4.93057,3.99484 -11.84058,5.99226 -20.73006,5.99226 l -63.47505,0 0,-92.30117 63.12489,0 c 18.98388,1e-4 28.47585,7.21791 28.47595,21.65347 z m -21.34284,-4.25275 0,-40.75981 c -8e-5,-5.88111 -4.17941,-8.82171 -12.53801,-8.82178 l -36.1117,0 0,59.46515 36.1117,0 c 8.3586,2e-5 12.53793,-3.2945 12.53801,-9.88356 z" style="fill:#e25501;font-family:Sony Sketch EF;-inkscape-font-specification:Sony Sketch EF Bold" id="path4066"/>
      <path d="m 489.28296,473.27793 c -8e-5,6.33302 -2.97268,11.26162 -8.91779,14.7858 -3.65229,2.33441 -9.31509,3.50161 -16.98843,3.50161 l -27.02448,0 c -8.74274,0 -15.37978,-1.63032 -19.91114,-4.89095 -4.53139,-3.26063 -6.79708,-7.72611 -6.79707,-13.39646 l 0,-33.22571 c -10e-6,-6.42332 2.91046,-11.41969 8.73142,-14.98913 4.08895,-2.49247 10.08121,-3.73874 17.97679,-3.73881 l 27.02448,0 c 7.91431,7e-5 13.82185,1.28964 17.72263,3.86871 5.45565,3.31341 8.18351,8.26648 8.18359,14.85923 z m -19.56945,-3.10062 0,-27.02448 c -7e-5,-2.39083 -0.89617,-4.11151 -2.68833,-5.16204 -1.71698,-1.20103 -4.38083,-1.80158 -7.99156,-1.80163 l -18.51897,0 c -3.81038,5e-5 -6.57213,0.56106 -8.28525,1.68303 -2.01063,1.12583 -3.01592,2.88605 -3.0159,5.28064 l 0,26.8494 c -2e-5,2.23653 0.93562,3.87814 2.80693,4.92484 1.67171,1.06179 4.11906,1.59268 7.34208,1.59266 l 20.73289,0 c 3.04595,2e-5 5.32199,-0.51016 6.82812,-1.53054 1.85993,-1.09188 2.78992,-2.69584 2.78999,-4.81188 z" style="fill:#e25501;font-family:Sony Sketch EF;-inkscape-font-specification:Sony Sketch EF Bold" id="path4068"/>
      <path d="m 619.14731,420.2625 -19.52992,61.92757 c -2.3345,7.07852 -7.26687,10.61777 -14.7971,10.61777 -7.25556,0 -11.85847,-2.95377 -13.80875,-8.86132 l -12.46458,-43.58932 -11.52141,42.31858 c -2.09725,6.75471 -6.98254,10.13206 -14.65591,10.13206 -7.37222,0 -12.07303,-3.13073 -14.10243,-9.3922 l -19.78406,-63.15314 18.6771,0 15.97184,53.15662 12.56624,-43.73617 c 2.08585,-6.63415 6.47226,-9.95126 13.15925,-9.95133 6.73205,7e-5 11.14671,3.92337 13.24398,11.76991 l 12.37421,41.91759 15.96619,-53.15662 z" style="fill:#e25501;font-family:Sony Sketch EF;-inkscape-font-specification:Sony Sketch EF Bold" id="path4070"/>
      <path d="m 683.29445,491.39026 0,-44.06939 c -6e-5,-5.58746 -3.70687,-8.38121 -11.12042,-8.38126 l -17.36683,0 c -7.53412,5e-5 -11.30117,2.7938 -11.30114,8.38126 l 0,44.06939 -19.56945,0 0,-48.0567 c -10e-6,-14.78951 8.57703,-22.18429 25.73114,-22.18436 l 27.46501,0 c 17.0373,7e-5 25.55598,7.39485 25.55606,22.18436 l 0,48.0567 z" style="fill:#e25501;font-family:Sony Sketch EF;-inkscape-font-specification:Sony Sketch EF Bold" id="path4072"/>
      <path d="m 737.31517,491.56534 -19.56945,0 0,-92.21645 19.56945,0 z" style="fill:#e25501;font-family:Sony Sketch EF;-inkscape-font-specification:Sony Sketch EF Bold" id="path4074"/>
      <path d="m 830.49738,473.27793 c -9e-5,6.33302 -2.97268,11.26162 -8.9178,14.7858 -3.65228,2.33441 -9.31509,3.50161 -16.98843,3.50161 l -27.02448,0 c -8.74274,0 -15.37978,-1.63032 -19.91114,-4.89095 -4.53138,-3.26063 -6.79707,-7.72611 -6.79706,-13.39646 l 0,-33.22571 c -10e-6,-6.42332 2.91046,-11.41969 8.73142,-14.98913 4.08895,-2.49247 10.0812,-3.73874 17.97678,-3.73881 l 27.02448,0 c 7.91431,7e-5 13.82185,1.28964 17.72264,3.86871 5.45564,3.31341 8.1835,8.26648 8.18359,14.85923 z m -19.56945,-3.10062 0,-27.02448 c -7e-5,-2.39083 -0.89618,-4.11151 -2.68833,-5.16204 -1.71698,-1.20103 -4.38083,-1.80158 -7.99157,-1.80163 l -18.51896,0 c -3.81039,5e-5 -6.57213,0.56106 -8.28525,1.68303 -2.01063,1.12583 -3.01593,2.88605 -3.0159,5.28064 l 0,26.8494 c -3e-5,2.23653 0.93561,3.87814 2.80693,4.92484 1.6717,1.06179 4.11906,1.59268 7.34207,1.59266 l 20.73289,0 c 3.04596,2e-5 5.322,-0.51016 6.82813,-1.53054 1.85993,-1.09188 2.78992,-2.69584 2.78999,-4.81188 z" style="fill:#e25501;font-family:Sony Sketch EF;-inkscape-font-specification:Sony Sketch EF Bold" id="path4076"/>
      <path d="m 926.42443,473.10285 c -9e-5,5.51598 -2.17071,9.97205 -6.51186,13.36822 -4.34131,3.39618 -10.1566,5.09427 -17.44589,5.09427 l -29.76929,0 c -7.52283,0 -13.55085,-1.41382 -18.08409,-4.24146 -5.21853,-3.27569 -7.82779,-7.83907 -7.82778,-13.69015 l 0,-11.78685 c -10e-6,-5.95646 2.27321,-10.53772 6.81966,-13.7438 4.54641,-3.20599 10.61491,-4.80901 18.20551,-4.80905 l 35.22502,0 c -0.10926,-2.07833 -0.71357,-3.76324 -1.81293,-5.05474 -1.23504,-1.3667 -3.95537,-2.05008 -8.161,-2.05013 l -49.92045,0 0,-15.03996 52.04401,0 c 18.15931,7e-5 27.239,6.24271 27.23909,18.72794 z m -19.56945,-2.21392 0,-12.84863 c -7e-5,-0.27106 -0.5479,-0.4066 -1.6435,-0.40664 l -29.76928,0 c -6.05819,4e-5 -9.08726,2.17253 -9.08723,6.5175 l 0,6.55704 c -3e-5,1.76965 0.85372,3.15146 2.56125,4.14545 1.70747,0.99402 3.94304,1.49102 6.70671,1.491 l 22.32555,0 c 5.9376,2e-5 8.90643,-1.81855 8.9065,-5.45572 z" style="fill:#e25501;font-family:Sony Sketch EF;-inkscape-font-specification:Sony Sketch EF Bold" id="path4078"/>
      <path d="m 1022.5604,399.26417 0,71.79984 c -10e-5,7.33832 -2.6809,12.58978 -8.0424,15.75439 -5.3617,3.16463 -11.7305,4.74694 -19.10637,4.74694 l -27.465,0 c -17.15788,0 -25.7368,-6.65681 -25.7368,-19.97044 l 0,-31.89284 c 0,-5.98279 2.32875,-10.74855 6.98627,-14.29728 4.65749,-3.5486 10.84742,-5.32293 18.5698,-5.323 l 35.225,0 0,-20.81761 z m -19.5695,70.20717 0,-33.22571 c -10e-5,-0.62872 -0.6081,-0.94311 -1.8242,-0.94317 l -28.70187,0 c -7.12373,6e-5 -10.68557,2.55848 -10.68554,7.67529 l 0,25.69161 c -3e-5,2.79001 0.47626,4.57282 1.42888,5.34842 1.97668,1.55127 5.06223,2.32689 9.25666,2.32687 l 18.86913,0 c 7.77123,2e-5 11.65684,-2.29108 11.65694,-6.87331 z" style="fill:#e25501;font-family:Sony Sketch EF;-inkscape-font-specification:Sony Sketch EF Bold" id="path4080"/>
    </g>
    <g transform="matrix(0.97415745,0,0,1.0265281,0,2)" style="font-size:185.06544495px;font-style:normal;font-variant:normal;font-weight:bold;font-stretch:normal;line-height:125%;letter-spacing:0px;word-spacing:0px;fill:#ffffff;fill-opacity:1;stroke:none;font-family:Sony Sketch EF;-inkscape-font-specification:Sony Sketch EF Bold" id="text3787">
      <path d="m 393.78788,471.41965 c -10e-5,6.73966 -2.46534,12.1069 -7.39573,16.10173 -4.93057,3.99484 -11.84058,5.99226 -20.73006,5.99226 l -63.47505,0 0,-92.30116 63.12489,0 c 18.98388,9e-5 28.47585,7.21791 28.47595,21.65347 z m -21.34284,-4.25276 0,-40.7598 c -8e-5,-5.88112 -4.17941,-8.82171 -12.53801,-8.82179 l -36.1117,0 0,59.46515 36.1117,0 c 8.3586,2e-5 12.53793,-3.2945 12.53801,-9.88356 z" style="fill:#ffffff;font-family:Sony Sketch EF;-inkscape-font-specification:Sony Sketch EF Bold" id="path4049" inkscape:connector-curvature="0"/>
      <path d="m 487.22989,475.22623 c -8e-5,6.33302 -2.97268,11.26162 -8.91779,14.78581 -3.65229,2.3344 -9.31509,3.5016 -16.98843,3.5016 l -27.02448,0 c -8.74274,0 -15.37978,-1.63031 -19.91114,-4.89095 -4.53139,-3.26063 -6.79708,-7.72611 -6.79707,-13.39646 l 0,-33.22571 c -10e-6,-6.42331 2.91046,-11.41968 8.73142,-14.98913 4.08895,-2.49247 10.08121,-3.73873 17.97679,-3.73881 l 27.02448,0 c 7.91431,8e-5 13.82185,1.28964 17.72263,3.86871 5.45565,3.31341 8.18351,8.26648 8.18359,14.85923 z m -19.56945,-3.10061 0,-27.02448 c -7e-5,-2.39083 -0.89617,-4.11151 -2.68833,-5.16205 -1.71698,-1.20103 -4.38083,-1.80157 -7.99156,-1.80163 l -18.51897,0 c -3.81038,6e-5 -6.57213,0.56107 -8.28525,1.68303 -2.01063,1.12584 -3.01592,2.88605 -3.0159,5.28065 l 0,26.8494 c -2e-5,2.23652 0.93562,3.87813 2.80693,4.92483 1.67171,1.06179 4.11906,1.59268 7.34208,1.59267 l 20.73288,0 c 3.04596,1e-5 5.322,-0.51017 6.82813,-1.53054 1.85993,-1.09188 2.78992,-2.69584 2.78999,-4.81188 z" style="fill:#ffffff;font-family:Sony Sketch EF;-inkscape-font-specification:Sony Sketch EF Bold" id="path4051" inkscape:connector-curvature="0"/>
      <path d="m 617.09424,422.21081 -19.52992,61.92757 c -2.3345,7.07851 -7.26687,10.61776 -14.7971,10.61777 -7.25556,-10e-6 -11.85847,-2.95377 -13.80875,-8.86132 l -12.46458,-43.58933 -11.52141,42.31858 c -2.09725,6.75471 -6.98254,10.13206 -14.65591,10.13207 -7.37222,-10e-6 -12.07303,-3.13074 -14.10243,-9.39221 l -19.78406,-63.15313 18.6771,0 15.97184,53.15661 12.56624,-43.73617 c 2.08585,-6.63415 6.47226,-9.95126 13.15925,-9.95133 6.73205,7e-5 11.1467,3.92337 13.24398,11.76991 l 12.37421,41.91759 15.96619,-53.15661 z" style="fill:#ffffff;font-family:Sony Sketch EF;-inkscape-font-specification:Sony Sketch EF Bold" id="path4053" inkscape:connector-curvature="0"/>
      <path d="m 681.24138,493.33856 0,-44.06939 c -6e-5,-5.58745 -3.70687,-8.3812 -11.12042,-8.38126 l -17.36683,0 c -7.53412,6e-5 -11.30117,2.79381 -11.30114,8.38126 l 0,44.06939 -19.56945,0 0,-48.0567 c -1e-5,-14.78951 8.57703,-22.18428 25.73114,-22.18436 l 27.46501,0 c 17.0373,8e-5 25.55598,7.39485 25.55606,22.18436 l 0,48.0567 z" style="fill:#ffffff;font-family:Sony Sketch EF;-inkscape-font-specification:Sony Sketch EF Bold" id="path4055" inkscape:connector-curvature="0"/>
      <path d="m 735.2621,493.51364 -19.56945,0 0,-92.21645 19.56945,0 z" style="fill:#ffffff;font-family:Sony Sketch EF;-inkscape-font-specification:Sony Sketch EF Bold" id="path4057" inkscape:connector-curvature="0"/>
      <path d="m 828.44431,475.22623 c -9e-5,6.33302 -2.97268,11.26162 -8.9178,14.78581 -3.65228,2.3344 -9.31509,3.5016 -16.98843,3.5016 l -27.02448,0 c -8.74274,0 -15.37978,-1.63031 -19.91114,-4.89095 -4.53138,-3.26063 -6.79707,-7.72611 -6.79706,-13.39646 l 0,-33.22571 c -10e-6,-6.42331 2.91046,-11.41968 8.73142,-14.98913 4.08895,-2.49247 10.0812,-3.73873 17.97678,-3.73881 l 27.02448,0 c 7.91431,8e-5 13.82185,1.28964 17.72264,3.86871 5.45564,3.31341 8.1835,8.26648 8.18359,14.85923 z m -19.56945,-3.10061 0,-27.02448 c -7e-5,-2.39083 -0.89618,-4.11151 -2.68833,-5.16205 -1.71698,-1.20103 -4.38083,-1.80157 -7.99157,-1.80163 l -18.51896,0 c -3.81039,6e-5 -6.57213,0.56107 -8.28525,1.68303 -2.01063,1.12584 -3.01593,2.88605 -3.0159,5.28065 l 0,26.8494 c -3e-5,2.23652 0.93561,3.87813 2.80693,4.92483 1.6717,1.06179 4.11906,1.59268 7.34207,1.59267 l 20.73289,0 c 3.04596,1e-5 5.322,-0.51017 6.82813,-1.53054 1.85993,-1.09188 2.78992,-2.69584 2.78999,-4.81188 z" style="fill:#ffffff;font-family:Sony Sketch EF;-inkscape-font-specification:Sony Sketch EF Bold" id="path4059" inkscape:connector-curvature="0"/>
      <path d="m 924.37136,475.05115 c -9e-5,5.51598 -2.17071,9.97205 -6.51186,13.36822 -4.34131,3.39618 -10.1566,5.09427 -17.44589,5.09427 l -29.76929,0 c -7.52283,0 -13.55085,-1.41382 -18.08409,-4.24146 -5.21853,-3.27569 -7.82779,-7.83906 -7.82778,-13.69014 l 0,-11.78685 c -10e-6,-5.95646 2.27321,-10.53772 6.81966,-13.7438 4.54641,-3.20599 10.61491,-4.80901 18.20551,-4.80906 l 35.22502,0 c -0.10926,-2.07832 -0.71357,-3.76323 -1.81293,-5.05474 -1.23504,-1.3667 -3.95537,-2.05007 -8.161,-2.05013 l -49.92045,0 0,-15.03996 52.04401,0 c 18.15931,8e-5 27.239,6.24271 27.23909,18.72794 z m -19.56945,-2.21392 0,-12.84863 c -7e-5,-0.27106 -0.5479,-0.4066 -1.6435,-0.40664 l -29.76928,0 c -6.05819,4e-5 -9.08726,2.17254 -9.08723,6.51751 l 0,6.55703 c -3e-5,1.76965 0.85372,3.15147 2.56125,4.14545 1.70747,0.99402 3.94304,1.49102 6.70671,1.49101 l 22.32555,0 c 5.9376,1e-5 8.90643,-1.81856 8.9065,-5.45573 z" style="fill:#ffffff;font-family:Sony Sketch EF;-inkscape-font-specification:Sony Sketch EF Bold" id="path4061" inkscape:connector-curvature="0"/>
      <path d="m 1020.5073,401.21248 0,71.79983 c -10e-5,7.33832 -2.6809,12.58978 -8.0424,15.7544 -5.3617,3.16462 -11.7304,4.74693 -19.10634,4.74693 l -27.465,0 c -17.15788,0 -25.7368,-6.65681 -25.7368,-19.97044 l 0,-31.89284 c 0,-5.98279 2.32875,-10.74854 6.98627,-14.29728 4.65749,-3.5486 10.84742,-5.32293 18.5698,-5.323 l 35.22497,0 0,-20.8176 z m -19.5695,70.20717 0,-33.22571 c 0,-0.62873 -0.6081,-0.94312 -1.82418,-0.94318 l -28.70186,0 c -7.12373,6e-5 -10.68557,2.55849 -10.68554,7.6753 l 0,25.69161 c -3e-5,2.79 0.47626,4.57281 1.42888,5.34841 1.97668,1.55127 5.06223,2.32689 9.25666,2.32688 l 18.86913,0 c 7.77123,1e-5 11.65691,-2.29109 11.65691,-6.87331 z" style="fill:#ffffff;font-family:Sony Sketch EF;-inkscape-font-specification:Sony Sketch EF Bold" id="path4063" inkscape:connector-curvature="0"/>
    </g>
    <path d="m 100.53905,412.80141 c 11.46283,0 22.92832,0 34.39248,0 1.15632,0 0.54647,-28.2624 0.54647,-30.89844 0.003,-9.65971 -3.42537,-28.25053 3.45179,-36.40809 7.18342,-8.52189 25.25678,-5.21795 35.00759,-5.21795 12.33799,0 24.67862,0 37.01925,0 16.56989,0 14.98722,17.08603 14.98722,28.50794 0,13.98139 0,27.96409 0,41.94416 0,3.5983 3.12575,2.07238 6.4033,2.07238 7.48041,0 14.95685,0 22.43463,0 12.43566,0 18.24101,12.82639 9.18583,21.9106 -7.81568,7.84209 -15.63401,15.68549 -23.45103,23.52759 -16.64118,16.69398 -32.53126,35.66757 -50.62707,50.78812 -10.69856,10.66952 -20.88628,-0.14263 -28.42345,-7.67314 -10.2656,-10.25767 -20.53515,-20.51668 -30.80076,-30.77567 -10.09136,-10.07947 -20.18008,-20.16161 -30.27011,-30.24107 -6.541892,-6.53927 -14.900113,-14.8209 -6.563018,-24.42783 1.704108,-1.96283 4.097265,-3.1086 6.706878,-3.1086" id="path4046" style="fill:#ffffff;stroke:#ffffff;stroke-width:7.83699989;stroke-miterlimit:4;stroke-dasharray:none;marker-mid:none;overflow:visible" inkscape:connector-curvature="0"/>
    <path inkscape:connector-curvature="0" style="fill:url(#radialGradient3845);fill-opacity:1;stroke:none;stroke-width:4.13749695;marker-mid:none;overflow:visible" id="path10" d="m 100.53905,412.80141 c 11.46283,0 22.92832,0 34.39248,0 1.15632,0 0.54647,-28.2624 0.54647,-30.89844 0.003,-9.65971 -3.42537,-28.25053 3.45179,-36.40809 7.18342,-8.52189 25.25678,-5.21795 35.00759,-5.21795 12.33799,0 24.67862,0 37.01925,0 16.56989,0 14.98722,17.08603 14.98722,28.50794 0,13.98139 0,27.96409 0,41.94416 0,3.5983 3.12575,2.07238 6.4033,2.07238 7.48041,0 14.95685,0 22.43463,0 12.43566,0 18.24101,12.82639 9.18583,21.9106 -7.81568,7.84209 -15.63401,15.68549 -23.45103,23.52759 -16.64118,16.69398 -32.53126,35.66757 -50.62707,50.78812 -10.69856,10.66952 -20.88628,-0.14263 -28.42345,-7.67314 -10.2656,-10.25767 -20.53515,-20.51668 -30.80076,-30.77567 -10.09136,-10.07947 -20.18008,-20.16161 -30.27011,-30.24107 -6.541892,-6.53927 -14.900113,-14.8209 -6.563018,-24.42783 1.704108,-1.96283 4.097265,-3.1086 6.706878,-3.1086"/>
  </g>
  <metadata>
    <rdf:RDF>
      <cc:Work>
        <dc:format>image/svg+xml</dc:format>
        <dc:type rdf:resource="http://purl.org/dc/dcmitype/StillImage"/>
        <cc:license rdf:resource="http://creativecommons.org/licenses/publicdomain/"/>
        <dc:publisher>
          <cc:Agent rdf:about="http://openclipart.org/">
            <dc:title>Open Clip Art Library</dc:title>
          </cc:Agent>
        </dc:publisher>
        <dc:title>Download Button</dc:title>
        <dc:date>2011-01-26T17:48:50</dc:date>
        <dc:description>Download Web Button</dc:description>
        <dc:source>http://openclipart.org/detail/110119/download-button-by-maw</dc:source>
        <dc:creator>
          <cc:Agent>
            <dc:title>Maw</dc:title>
          </cc:Agent>
        </dc:creator>
        <dc:subject>
          <rdf:Bag>
            <rdf:li>download</rdf:li>
            <rdf:li>button</rdf:li>
            <rdf:li>web</rdf:li>
            <rdf:li>arrow</rdf:li>
            <rdf:li>descargas</rdf:li>
            <rdf:li>botón</rdf:li>
          </rdf:Bag>
        </dc:subject>
      </cc:Work>
      <cc:License rdf:about="http://creativecommons.org/licenses/publicdomain/">
        <cc:permits rdf:resource="http://creativecommons.org/ns#Reproduction"/>
        <cc:permits rdf:resource="http://creativecommons.org/ns#Distribution"/>
        <cc:permits rdf:resource="http://creativecommons.org/ns#DerivativeWorks"/>
      </cc:License>
    </rdf:RDF>
  </metadata>
</svg>
