<?xml version="1.0" encoding="UTF-8"?>
<svg xmlns="http://www.w3.org/2000/svg" xmlns:xlink="http://www.w3.org/1999/xlink" width="26.400799pt" height="26.400799pt" viewBox="0 0 26.400799 26.400799" version="1.1">
<g id="surface1">
<path style=" stroke:none;fill-rule:nonzero;fill:rgb(21.960449%,21.960449%,21.960449%);fill-opacity:1;" d="M 26.402344 22.402344 C 26.402344 24.609375 24.609375 26.402344 22.402344 26.402344 L 4 26.402344 C 1.792969 26.402344 0 24.609375 0 22.402344 L 0 4 C 0 1.792969 1.792969 0 4 0 L 22.402344 0 C 24.609375 0 26.402344 1.792969 26.402344 4 Z M 26.402344 22.402344 "/>
<path style=" stroke:none;fill-rule:nonzero;fill:rgb(100%,100%,100%);fill-opacity:1;" d="M 9.199219 6.878906 C 8.761719 6.878906 8.398438 7.246094 8.398438 7.695312 L 8.398438 19.078125 C 8.398438 19.523438 8.675781 19.65625 9.015625 19.367188 L 12.585938 16.34375 C 12.921875 16.058594 13.476562 16.058594 13.8125 16.34375 L 17.382812 19.367188 C 17.722656 19.65625 18 19.523438 18 19.078125 L 18 7.695312 C 18 7.246094 17.640625 6.878906 17.199219 6.878906 "/>
</g>
</svg>
