<?xml version="1.0" encoding="UTF-8"?>
<!-- Generator: IcoMoon.io -->
<!DOCTYPE svg PUBLIC "-//W3C//DTD SVG 1.1//EN" "http://www.w3.org/Graphics/SVG/1.1/DTD/svg11.dtd">
<svg width="512" height="512" viewBox="0 0 512 512" xmlns="http://www.w3.org/2000/svg" xmlns:xlink="http://www.w3.org/1999/xlink" fill="#000000"><path d="M 400.672,298.752L 400.672,98.96 c0.00-19.744-16.00-35.776-35.776-35.776L 51.76,63.184 C 32.00,63.168, 15.984,79.20, 15.984,98.96l0.00,199.792 c0.00,19.76, 16.016,35.776, 35.776,35.776l 59.664,0.00 l0.00,82.192l 91.264-82.192l 162.192,0.00 C 384.672,334.528, 400.672,318.512, 400.672,298.752z M 460.24,141.728l-44.768,0.00 c0.00,0.00,0.00,159.552,0.00,174.544s-19.456,34.272-34.448,34.272 s-175.12,0.88-175.12,0.88c0.00,19.76, 16.016,31.776, 35.776,31.776l 68.944,0.00 l 89.952,81.632l-0.112-81.632l 59.776,0.00 c 19.776,0.00, 35.776-12.016, 35.776-31.776L 496.016,176.512 C 496.016,156.768, 480.016,141.728, 460.24,141.728z"/></svg>