<?xml version="1.0" encoding="UTF-8"?>
<svg xmlns="http://www.w3.org/2000/svg" xmlns:xlink="http://www.w3.org/1999/xlink" width="80.000801pt" height="80.000801pt" viewBox="0 0 80.000801 80.000801" version="1.1">
<g id="surface1">
<path style=" stroke:none;fill-rule:nonzero;fill:rgb(21.960449%,21.960449%,21.960449%);fill-opacity:1;" d="M 80 76.800781 C 80 78.566406 78.566406 80 76.800781 80 L 3.199219 80 C 1.433594 80 0 78.566406 0 76.800781 L 0 3.199219 C 0 1.433594 1.433594 0 3.199219 0 L 76.800781 0 C 78.566406 0 80 1.433594 80 3.199219 Z M 80 76.800781 "/>
<path style=" stroke:none;fill-rule:nonzero;fill:rgb(100%,100%,100%);fill-opacity:1;" d="M 57.3125 58.074219 L 57.074219 58.554688 C 55.710938 60.367188 49.53125 62.558594 40 62.558594 C 30.46875 62.558594 24.289062 60.367188 22.925781 58.554688 L 22.6875 58.074219 C 22.664062 57.992188 22.636719 57.90625 22.636719 57.824219 L 22.722656 57.824219 C 23.378906 54.773438 28.0625 50.882812 35.660156 49.765625 L 35.660156 46.992188 C 33.4375 44.851562 31.320312 41.316406 31.320312 36.328125 C 31.320312 30.296875 33.488281 25.402344 40 25.402344 C 46.511719 25.402344 48.683594 30.296875 48.683594 36.328125 C 48.683594 41.316406 46.566406 44.851562 44.34375 46.992188 L 44.34375 49.765625 C 51.9375 50.882812 56.621094 54.773438 57.28125 57.824219 L 57.363281 57.824219 C 57.363281 57.90625 57.335938 57.992188 57.3125 58.074219 "/>
<path style=" stroke:none;fill-rule:nonzero;fill:rgb(100%,100%,100%);fill-opacity:1;" d="M 70.671875 47.597656 L 70.453125 48.039062 C 69.261719 49.625 67.132812 53.1875 58.109375 53.414062 C 55.605469 51.410156 52.019531 47.960938 49.347656 47.960938 C 51.480469 45.421875 52.804688 42.128906 52.804688 36.082031 C 52.804688 30.089844 51.023438 25.683594 47.765625 23.171875 C 48.4375 18.339844 49.675781 17.441406 54.691406 17.441406 C 60.703125 17.441406 62.707031 21.957031 62.707031 27.527344 C 62.707031 32.132812 60.753906 35.394531 58.699219 37.371094 L 58.699219 39.929688 C 65.710938 40.960938 70.035156 44.550781 70.640625 47.371094 L 70.71875 47.371094 C 70.71875 47.445312 70.695312 47.523438 70.671875 47.597656 "/>
<path style=" stroke:none;fill-rule:nonzero;fill:rgb(100%,100%,100%);fill-opacity:1;" d="M 27.195312 36.082031 C 27.195312 42.128906 28.519531 45.421875 30.652344 47.960938 C 27.980469 47.960938 24.394531 51.410156 21.894531 53.414062 C 12.871094 53.1875 10.738281 49.625 9.546875 48.039062 L 9.328125 47.597656 C 9.304688 47.523438 9.28125 47.445312 9.28125 47.367188 L 9.359375 47.367188 C 9.964844 44.550781 14.289062 40.960938 21.300781 39.929688 L 21.300781 37.371094 C 19.25 35.394531 17.296875 32.132812 17.296875 27.527344 C 17.296875 21.953125 19.296875 17.441406 25.308594 17.441406 C 30.324219 17.441406 31.566406 18.339844 32.238281 23.167969 C 28.980469 25.6875 27.195312 30.089844 27.195312 36.082031 "/>
</g>
</svg>
