<?xml version="1.0" encoding="UTF-8" standalone="no"?>
<!-- Generator: Adobe Illustrator 17.0.2, SVG Export Plug-In . SVG Version: 6.00 Build 0)  -->

<svg
   xmlns:dc="http://purl.org/dc/elements/1.1/"
   xmlns:cc="http://creativecommons.org/ns#"
   xmlns:rdf="http://www.w3.org/1999/02/22-rdf-syntax-ns#"
   xmlns:svg="http://www.w3.org/2000/svg"
   xmlns="http://www.w3.org/2000/svg"
   xmlns:sodipodi="http://sodipodi.sourceforge.net/DTD/sodipodi-0.dtd"
   xmlns:inkscape="http://www.inkscape.org/namespaces/inkscape"
   version="1.1"
   x="0px"
   y="0px"
   width="33.001px"
   height="33.001px"
   viewBox="0 0 33.001 33.001"
   enable-background="new 0 0 33.001 33.001"
   xml:space="preserve"
   id="svg2"
   inkscape:version="0.48.4 r9939"
   sodipodi:docname="edit.svg"><metadata
     id="metadata288"><rdf:RDF><cc:Work
         rdf:about=""><dc:format>image/svg+xml</dc:format><dc:type
           rdf:resource="http://purl.org/dc/dcmitype/StillImage" /></cc:Work></rdf:RDF></metadata><defs
     id="defs286" /><sodipodi:namedview
     pagecolor="#ffffff"
     bordercolor="#666666"
     borderopacity="1"
     objecttolerance="10"
     gridtolerance="10"
     guidetolerance="10"
     inkscape:pageopacity="0"
     inkscape:pageshadow="2"
     inkscape:window-width="1422"
     inkscape:window-height="989"
     id="namedview284"
     showgrid="false"
     inkscape:zoom="2.36"
     inkscape:cx="90.240031"
     inkscape:cy="-46.326725"
     inkscape:window-x="380"
     inkscape:window-y="40"
     inkscape:window-maximized="0"
     inkscape:current-layer="svg2" /><path
     style="fill:#383838;fill-opacity:1;display:none"
     inkscape:connector-curvature="0"
     id="path11"
     d="m 33.001,28.001 c 0,2.761 -2.239,5 -5,5 H 5 c -2.761,0 -5,-2.239 -5,-5 V 5 C 0,2.239 2.239,0 5,0 h 23.001 c 2.761,0 5,2.239 5,5 v 23.001 z" /><g
     id="g62"
     style="fill:#ffffff;fill-opacity:1"><title
       id="title3302">Pen</title><polygon
       id="polygon64"
       points="6.79,22.328 5.503,27.472 10.657,26.187 "
       style="fill:#ffffff;fill-opacity:1" /><path
       inkscape:connector-curvature="0"
       id="path66"
       d="m 27.097,7.858 -1.934,-1.93 c -0.534,-0.533 -1.399,-0.533 -1.933,0 l -2.9,2.894 -0.966,0.965 -11.6,11.577 3.867,3.859 11.6,-11.577 0.966,-0.965 2.9,-2.894 c 0.534,-0.533 0.534,-1.397 0,-1.929 z"
       style="fill:#ffffff;fill-opacity:1" /></g><g
     id="g68"><polygon
       style="fill:none;stroke:#000000;stroke-width:0.5;stroke-miterlimit:10"
       id="polygon70"
       points="46.827,22.328 45.54,27.472 50.694,26.187 "
       stroke-miterlimit="10" /><path
       style="fill:none;stroke:#000000;stroke-width:0.5;stroke-miterlimit:10"
       inkscape:connector-curvature="0"
       id="path72"
       d="M 67.134,7.858 65.2,5.928 c -0.534,-0.533 -1.399,-0.533 -1.933,0 l -2.9,2.894 -0.966,0.965 -11.6,11.577 3.867,3.859 11.6,-11.577 0.966,-0.965 2.9,-2.894 c 0.534,-0.533 0.534,-1.397 0,-1.929 z"
       stroke-miterlimit="10" /></g></svg>