<?xml version="1.0" encoding="UTF-8" standalone="no"?>
<!-- Generator: Adobe Illustrator 17.0.2, SVG Export Plug-In . SVG Version: 6.00 Build 0)  -->

<svg
   xmlns:dc="http://purl.org/dc/elements/1.1/"
   xmlns:cc="http://creativecommons.org/ns#"
   xmlns:rdf="http://www.w3.org/1999/02/22-rdf-syntax-ns#"
   xmlns:svg="http://www.w3.org/2000/svg"
   xmlns="http://www.w3.org/2000/svg"
   xmlns:sodipodi="http://sodipodi.sourceforge.net/DTD/sodipodi-0.dtd"
   xmlns:inkscape="http://www.inkscape.org/namespaces/inkscape"
   version="1.1"
   x="0px"
   y="0px"
   width="33.001px"
   height="33.001px"
   viewBox="0 0 33.001 33.001"
   enable-background="new 0 0 33.001 33.001"
   xml:space="preserve"
   id="svg2"
   inkscape:version="0.48.4 r9939"
   sodipodi:docname="news.svg"><metadata
     id="metadata288"><rdf:RDF><cc:Work
         rdf:about=""><dc:format>image/svg+xml</dc:format><dc:type
           rdf:resource="http://purl.org/dc/dcmitype/StillImage" /></cc:Work></rdf:RDF></metadata><defs
     id="defs286" /><sodipodi:namedview
     pagecolor="#ffffff"
     bordercolor="#666666"
     borderopacity="1"
     objecttolerance="10"
     gridtolerance="10"
     guidetolerance="10"
     inkscape:pageopacity="0"
     inkscape:pageshadow="2"
     inkscape:window-width="1422"
     inkscape:window-height="989"
     id="namedview284"
     showgrid="false"
     inkscape:zoom="1.7878246"
     inkscape:cx="16.5005"
     inkscape:cy="-28.246618"
     inkscape:window-x="433"
     inkscape:window-y="47"
     inkscape:window-maximized="0"
     inkscape:current-layer="svg2" /><path
     style="fill:#acacac"
     inkscape:connector-curvature="0"
     id="path49"
     d="m 33.001,28.001 c 0,2.761 -2.239,5 -5,5 H 5 c -2.761,0 -5,-2.239 -5,-5 V 5 C 0,2.239 2.239,0 5,0 h 23.001 c 2.761,0 5,2.239 5,5 v 23.001 z" /><path
     style="fill:#ffffff"
     inkscape:connector-curvature="0"
     id="path107"
     d="m -24.863,-69.905 -17.604,8.689 -17.604,-8.689 -0.007,10.651 c 0,0 8.362,6.746 10.979,7.383 1.842,0.905 6.633,1.751 6.633,1.751 0,0 4.792,-0.846 6.633,-1.751 2.617,-0.637 10.979,-7.383 10.979,-7.383 l -0.009,-10.651 z" /><g
     id="g109"><path
       style="fill:#ffffff"
       inkscape:connector-curvature="0"
       id="path111"
       d="m -66.633,-58.692 c -0.241,0 -0.498,-0.041 -0.77,-0.123 -1.515,-0.456 -1.509,-2.331 -1.506,-3.452 0.007,-2.651 0.332,-5.331 0.646,-7.923 0.212,-1.748 0.431,-3.554 0.542,-5.295 l 0.998,0.063 c -0.113,1.77 -0.334,3.591 -0.548,5.352 -0.311,2.563 -0.632,5.213 -0.639,7.806 -0.003,1.186 0.055,2.269 0.794,2.492 0.396,0.119 0.697,0.106 0.92,-0.042 0.556,-0.366 0.688,-1.538 0.759,-2.167 0.212,-1.868 0.143,-2.971 0.047,-4.497 -0.035,-0.557 -0.074,-1.17 -0.104,-1.897 -0.027,-0.638 -0.058,-1.262 -0.089,-1.878 -0.075,-1.501 -0.146,-2.919 -0.152,-4.428 l 1,-0.004 c 0.005,1.486 0.076,2.893 0.151,4.382 0.031,0.619 0.062,1.245 0.089,1.886 0.03,0.719 0.068,1.326 0.104,1.877 0.099,1.577 0.171,2.716 -0.051,4.672 -0.096,0.848 -0.256,2.266 -1.203,2.89 -0.288,0.19 -0.62,0.286 -0.988,0.286 z" /></g><path
     style="fill:#ffffff"
     inkscape:connector-curvature="0"
     id="path113"
     d="m -6.134,-81.328 -36.951,-10.25 -36.715,10.167 12.57,6.243 c 1.082,-0.299 6.797,-1.879 9.168,-2.557 1.169,-0.334 2.36,-0.728 3.41,-1.075 1.346,-0.446 2.41,-0.797 3.023,-0.896 0.989,-0.159 4.541,-1.021 5.564,-1.32 0.515,-0.15 0.907,-0.679 1.254,-1.146 0.198,-0.267 0.386,-0.52 0.596,-0.707 0.312,-0.276 0.998,-0.46 1.15,-0.491 0.321,-0.064 0.617,0.027 1.154,0.193 0.748,0.23 1.136,0.393 1.431,0.591 0.363,0.244 0.555,0.618 0.555,1.082 0,0.482 -0.202,0.923 -0.392,1.175 -0.226,0.301 -0.775,0.378 -1.154,0.472 -0.314,0.078 -0.623,0.201 -0.897,0.12 -0.156,-0.046 -0.388,0.049 -0.504,0.049 -0.274,0 -0.649,-0.181 -1.354,-0.361 -0.342,-0.087 -0.692,-0.248 -0.953,-0.3 -0.183,0.12 -0.384,0.217 -0.607,0.283 -0.964,0.281 -4.583,1.17 -5.686,1.347 -0.534,0.085 -1.615,0.443 -2.867,0.857 -1.059,0.351 -2.26,0.748 -3.45,1.088 -1.917,0.548 -6.021,1.686 -8.101,2.262 l 23.338,11.591 36.418,-18.417 z" /><g
     id="g118"><circle
       style="fill:#ffffff"
       sodipodi:ry="1.2970001"
       sodipodi:rx="1.2970001"
       sodipodi:cy="16.493"
       sodipodi:cx="12.193"
       id="circle120"
       r="1.2970001"
       cy="16.493"
       cx="12.193" /><circle
       style="fill:#ffffff"
       sodipodi:ry="1.2970001"
       sodipodi:rx="1.2970001"
       sodipodi:cy="16.493"
       sodipodi:cx="20.509001"
       id="circle122"
       r="1.2970001"
       cy="16.493"
       cx="20.509001" /><circle
       style="fill:#ffffff"
       sodipodi:ry="1.2970001"
       sodipodi:rx="1.2970001"
       sodipodi:cy="16.493"
       sodipodi:cx="16.386"
       id="circle124"
       r="1.2970001"
       cy="16.493"
       cx="16.386" /><path
       style="fill:#ffffff"
       inkscape:connector-curvature="0"
       id="path126"
       d="m 25.574,12.903 c 0,-0.004 0,-0.007 0,-0.01 C 25.567,11.25 24.229,9.916 22.584,9.916 H 10.417 c -1.644,0 -2.983,1.334 -2.99,2.977 0,0.004 -10e-4,0.007 -10e-4,0.01 0,10e-4 0,0.002 0,0.003 v 6.879 c 0,1.649 1.341,2.991 2.991,2.991 H 11.4 v 3.146 l 2.969,-3.146 h 8.215 c 1.649,0 2.991,-1.342 2.991,-2.991 v -6.879 c -10e-4,-0.001 -10e-4,-0.002 -10e-4,-0.003 z m -1.595,1.517 v 5.365 c 0,0.769 -0.626,1.396 -1.396,1.396 H 10.417 c -0.769,0 -1.396,-0.626 -1.396,-1.396 V 14.42 L 9.005,12.524 C 9.172,11.94 9.78,11.511 10.417,11.511 h 12.166 c 0.637,0 1.245,0.429 1.412,1.013 l -0.016,1.896 z" /></g></svg>