<?xml version="1.0" encoding="UTF-8" standalone="no"?>
<svg
   xmlns:dc="http://purl.org/dc/elements/1.1/"
   xmlns:cc="http://creativecommons.org/ns#"
   xmlns:rdf="http://www.w3.org/1999/02/22-rdf-syntax-ns#"
   xmlns:svg="http://www.w3.org/2000/svg"
   xmlns="http://www.w3.org/2000/svg"
   xmlns:sodipodi="http://sodipodi.sourceforge.net/DTD/sodipodi-0.dtd"
   xmlns:inkscape="http://www.inkscape.org/namespaces/inkscape"
   version="1.1"
   width="87.5"
   height="87.5"
   id="RSSicon"
   viewBox="0 0 175 175"
   inkscape:version="0.48.4 r9939"
   sodipodi:docname="rss.svg">
  <metadata
     id="metadata34">
    <rdf:RDF>
      <cc:Work
         rdf:about="">
        <dc:format>image/svg+xml</dc:format>
        <dc:type
           rdf:resource="http://purl.org/dc/dcmitype/StillImage" />
        <dc:title></dc:title>
      </cc:Work>
    </rdf:RDF>
  </metadata>
  <sodipodi:namedview
     pagecolor="#ffffff"
     bordercolor="#666666"
     borderopacity="1"
     objecttolerance="10"
     gridtolerance="10"
     guidetolerance="10"
     inkscape:pageopacity="0"
     inkscape:pageshadow="2"
     inkscape:window-width="1422"
     inkscape:window-height="989"
     id="namedview32"
     showgrid="false"
     inkscape:snap-bbox="false"
     inkscape:zoom="3.6875"
     inkscape:cx="45.79661"
     inkscape:cy="42.5"
     inkscape:window-x="51"
     inkscape:window-y="18"
     inkscape:window-maximized="0"
     inkscape:current-layer="RSSicon"
     fit-margin-top="0"
     fit-margin-left="0"
     fit-margin-right="0"
     fit-margin-bottom="0" />
  <g
     id="g3011"
     style="fill:#5b5b5b"
     transform="translate(-44,-38)">
    <circle
       id="circle26"
       r="24"
       cy="189"
       cx="68"
       sodipodi:cx="68"
       sodipodi:cy="189"
       sodipodi:rx="24"
       sodipodi:ry="24"
       d="m 92,189 c 0,13.25483 -10.745166,24 -24,24 -13.254834,0 -24,-10.74517 -24,-24 0,-13.25483 10.745166,-24 24,-24 13.254834,0 24,10.74517 24,24 z" />
    <path
       id="path28"
       d="M 160,213 H 126 A 82,82 0 0 0 44,131 V 97 a 116,116 0 0 1 116,116 z"
       inkscape:connector-curvature="0" />
    <path
       id="path30"
       d="M 184,213 A 140,140 0 0 0 44,73 V 38 a 175,175 0 0 1 175,175 z"
       inkscape:connector-curvature="0" />
  </g>
</svg>
