<svg width="20" height="20" viewBox="0 0 20 20" fill="none" xmlns="http://www.w3.org/2000/svg">
<path d="M18.6846 16.9375L15.169 8.42186C15.1041 8.2646 14.9939 8.13015 14.8525 8.03555C14.7111 7.94094 14.5448 7.89044 14.3747 7.89044C14.2045 7.89044 14.0382 7.94094 13.8968 8.03555C13.7554 8.13015 13.6453 8.2646 13.5803 8.42186L10.0647 16.9375C10.021 17.0419 9.99833 17.154 9.99805 17.2672C9.99776 17.3804 10.0199 17.4925 10.063 17.5972C10.1062 17.7018 10.1697 17.7969 10.2497 17.877C10.3298 17.957 10.4248 18.0205 10.5295 18.0637C10.6341 18.1069 10.7463 18.129 10.8595 18.1287C10.9727 18.1284 11.0847 18.1058 11.1892 18.0621C11.2936 18.0184 11.3884 17.9545 11.468 17.874C11.5477 17.7936 11.6107 17.6982 11.6534 17.5933L12.3694 15.8594H16.3799L17.096 17.5933C17.1609 17.7507 17.271 17.8852 17.4125 17.9798C17.5539 18.0745 17.7203 18.125 17.8905 18.125C18.0317 18.1249 18.1707 18.09 18.2952 18.0234C18.4198 17.9568 18.526 17.8606 18.6044 17.7432C18.6829 17.6258 18.7312 17.4908 18.7452 17.3503C18.7591 17.2098 18.7382 17.068 18.6842 16.9375H18.6846ZM13.0792 14.1406L14.3749 11.0019L15.6706 14.1406H13.0792Z" fill="white"/>
<path d="M10.4625 13.3953C10.596 13.2109 10.6509 12.981 10.6151 12.7562C10.5793 12.5313 10.4557 12.3299 10.2715 12.1961C10.2637 12.1902 9.68555 11.7613 8.84609 10.8395C10.3949 8.74258 11.2723 6.35703 11.6301 5.23438H12.8906C13.1185 5.23438 13.3371 5.14383 13.4983 4.98267C13.6595 4.82151 13.75 4.60292 13.75 4.375C13.75 4.14708 13.6595 3.92849 13.4983 3.76733C13.3371 3.60617 13.1185 3.51562 12.8906 3.51562H8.35938V2.73438C8.35938 2.50645 8.26883 2.28787 8.10767 2.12671C7.94651 1.96554 7.72792 1.875 7.5 1.875C7.27208 1.875 7.05349 1.96554 6.89233 2.12671C6.73117 2.28787 6.64062 2.50645 6.64062 2.73438V3.51562H2.10938C1.88145 3.51562 1.66287 3.60617 1.50171 3.76733C1.34054 3.92849 1.25 4.14708 1.25 4.375C1.25 4.60292 1.34054 4.82151 1.50171 4.98267C1.66287 5.14383 1.88145 5.23438 2.10938 5.23438H9.81445C9.44258 6.28711 8.75781 7.94922 7.71328 9.46719C6.48633 7.83906 6.03047 6.78555 6.02695 6.77695C5.93713 6.56937 5.76909 6.40557 5.55928 6.32107C5.34947 6.23658 5.11481 6.23821 4.9062 6.3256C4.69758 6.413 4.53183 6.57911 4.44489 6.78792C4.35795 6.99673 4.35684 7.23139 4.4418 7.44102C4.46445 7.49492 5.01016 8.77813 6.50664 10.7195C6.54258 10.766 6.57812 10.8113 6.61367 10.8566C5.08086 12.5891 3.57695 13.6637 2.94766 14.0105C2.74755 14.1197 2.599 14.3039 2.53468 14.5225C2.47036 14.7412 2.49554 14.9765 2.60469 15.1766C2.71383 15.3767 2.89799 15.5252 3.11666 15.5895C3.33533 15.6539 3.5706 15.6287 3.7707 15.5195C3.85508 15.4734 5.66914 14.4691 7.74063 12.1762C8.62031 13.1168 9.225 13.5605 9.26133 13.5863C9.35273 13.6527 9.45633 13.7004 9.5662 13.7268C9.67606 13.7531 9.79004 13.7575 9.9016 13.7397C10.0132 13.7219 10.1201 13.6823 10.2164 13.6231C10.3126 13.564 10.3963 13.4864 10.4625 13.3949V13.3953Z" fill="white"/>
</svg>
