<?xml version="1.0" encoding="UTF-8" standalone="no"?>
<!-- Generator: Adobe Illustrator 17.0.2, SVG Export Plug-In . SVG Version: 6.00 Build 0)  -->

<svg
   xmlns:dc="http://purl.org/dc/elements/1.1/"
   xmlns:cc="http://creativecommons.org/ns#"
   xmlns:rdf="http://www.w3.org/1999/02/22-rdf-syntax-ns#"
   xmlns:svg="http://www.w3.org/2000/svg"
   xmlns="http://www.w3.org/2000/svg"
   xmlns:sodipodi="http://sodipodi.sourceforge.net/DTD/sodipodi-0.dtd"
   xmlns:inkscape="http://www.inkscape.org/namespaces/inkscape"
   version="1.1"
   x="0px"
   y="0px"
   width="24.227255"
   height="17.819729"
   viewBox="0 0 24.227254 17.819729"
   enable-background="new 0 0 14.227 17.82"
   xml:space="preserve"
   id="svg2"
   inkscape:version="0.48.4 r9939"
   sodipodi:docname="search.svg"><metadata
     id="metadata288"><rdf:RDF><cc:Work
         rdf:about=""><dc:format>image/svg+xml</dc:format><dc:type
           rdf:resource="http://purl.org/dc/dcmitype/StillImage" /></cc:Work></rdf:RDF></metadata><defs
     id="defs286" /><sodipodi:namedview
     pagecolor="#ffffff"
     bordercolor="#666666"
     borderopacity="1"
     objecttolerance="10"
     gridtolerance="10"
     guidetolerance="10"
     inkscape:pageopacity="0"
     inkscape:pageshadow="2"
     inkscape:window-width="1422"
     inkscape:window-height="989"
     id="namedview284"
     showgrid="false"
     inkscape:zoom="9.3646018"
     inkscape:cx="7.1134999"
     inkscape:cy="-0.1512878"
     inkscape:window-x="330"
     inkscape:window-y="27"
     inkscape:window-maximized="0"
     inkscape:current-layer="svg2"
     fit-margin-right="10"
     fit-margin-top="0"
     fit-margin-left="0"
     fit-margin-bottom="0" /><g
     id="Creative_Commons_License_1_"><path
       inkscape:connector-curvature="0"
       id="path160"
       d="m -196.971,1928.951 -2.051,-8.084 h 1.104 l 0.959,4.09 c 0.24,1.008 0.456,2.016 0.6,2.795 h 0.024 c 0.132,-0.804 0.384,-1.763 0.66,-2.807 l 1.08,-4.078 h 1.091 l 0.983,4.103 c 0.228,0.959 0.444,1.919 0.564,2.771 h 0.024 c 0.168,-0.888 0.396,-1.787 0.647,-2.795 l 1.067,-4.078 h 1.067 l -2.291,8.084 h -1.091 l -1.02,-4.21 c -0.252,-1.031 -0.42,-1.822 -0.528,-2.639 h -0.024 c -0.144,0.804 -0.324,1.596 -0.624,2.639 l -1.151,4.21 h -1.09 z" /><path
       inkscape:connector-curvature="0"
       id="path162"
       d="m -187.191,1921.516 c 0.012,0.359 -0.252,0.647 -0.671,0.647 -0.372,0 -0.636,-0.288 -0.636,-0.647 0,-0.372 0.276,-0.66 0.66,-0.66 0.395,-10e-4 0.647,0.287 0.647,0.66 z m -1.175,7.435 v -5.805 h 1.056 v 5.805 h -1.056 z" /><path
       inkscape:connector-curvature="0"
       id="path164"
       d="m -184.287,1921.479 v 1.667 h 1.511 v 0.804 h -1.511 v 3.13 c 0,0.72 0.204,1.128 0.792,1.128 0.276,0 0.479,-0.036 0.612,-0.072 l 0.048,0.791 c -0.204,0.084 -0.528,0.145 -0.936,0.145 -0.492,0 -0.888,-0.156 -1.14,-0.444 -0.3,-0.312 -0.408,-0.827 -0.408,-1.511 v -3.166 h -0.899 v -0.804 h 0.899 v -1.392 l 1.032,-0.276 z" /><path
       inkscape:connector-curvature="0"
       id="path166"
       d="m -181.587,1920.435 h 1.056 v 3.622 h 0.024 c 0.168,-0.3 0.432,-0.563 0.755,-0.743 0.312,-0.18 0.684,-0.3 1.08,-0.3 0.779,0 2.027,0.479 2.027,2.482 v 3.454 h -1.056 v -3.334 c 0,-0.936 -0.348,-1.728 -1.343,-1.728 -0.684,0 -1.223,0.48 -1.415,1.056 -0.06,0.144 -0.072,0.3 -0.072,0.504 v 3.502 h -1.056 v -8.515 z" /><path
       inkscape:connector-curvature="0"
       id="path168"
       d="m -169.168,1928.951 -0.084,-0.731 h -0.036 c -0.324,0.456 -0.947,0.863 -1.775,0.863 -1.175,0 -1.775,-0.827 -1.775,-1.667 0,-1.403 1.247,-2.171 3.49,-2.159 v -0.119 c 0,-0.48 -0.132,-1.344 -1.319,-1.344 -0.54,0 -1.103,0.168 -1.511,0.432 l -0.24,-0.695 c 0.48,-0.312 1.176,-0.516 1.907,-0.516 1.775,0 2.207,1.211 2.207,2.374 v 2.171 c 0,0.504 0.024,0.996 0.096,1.392 h -0.96 z m -0.156,-2.962 c -1.151,-0.024 -2.459,0.18 -2.459,1.307 0,0.684 0.456,1.008 0.996,1.008 0.755,0 1.235,-0.479 1.403,-0.972 0.036,-0.107 0.06,-0.228 0.06,-0.336 v -1.007 z" /><path
       inkscape:connector-curvature="0"
       id="path170"
       d="m -166.743,1927.872 c 0.312,0.203 0.864,0.42 1.392,0.42 0.768,0 1.127,-0.384 1.127,-0.864 0,-0.504 -0.3,-0.779 -1.079,-1.067 -1.043,-0.371 -1.535,-0.947 -1.535,-1.643 0,-0.936 0.755,-1.703 2.003,-1.703 0.587,0 1.104,0.168 1.427,0.359 l -0.264,0.768 c -0.228,-0.144 -0.647,-0.336 -1.187,-0.336 -0.624,0 -0.972,0.36 -0.972,0.792 0,0.479 0.348,0.695 1.104,0.983 1.007,0.384 1.523,0.888 1.523,1.751 0,1.02 -0.792,1.739 -2.171,1.739 -0.635,0 -1.223,-0.156 -1.631,-0.396 l 0.263,-0.803 z" /><path
       inkscape:connector-curvature="0"
       id="path172"
       d="m -161.991,1927.872 c 0.312,0.203 0.864,0.42 1.392,0.42 0.768,0 1.127,-0.384 1.127,-0.864 0,-0.504 -0.3,-0.779 -1.079,-1.067 -1.043,-0.371 -1.535,-0.947 -1.535,-1.643 0,-0.936 0.755,-1.703 2.003,-1.703 0.587,0 1.104,0.168 1.427,0.359 l -0.264,0.768 c -0.228,-0.144 -0.647,-0.336 -1.187,-0.336 -0.624,0 -0.972,0.36 -0.972,0.792 0,0.479 0.348,0.695 1.104,0.983 1.007,0.384 1.523,0.888 1.523,1.751 0,1.02 -0.792,1.739 -2.171,1.739 -0.635,0 -1.223,-0.156 -1.631,-0.396 l 0.263,-0.803 z" /><path
       inkscape:connector-curvature="0"
       id="path174"
       d="m -156.507,1926.24 c 0.024,1.428 0.935,2.016 1.991,2.016 0.755,0 1.211,-0.132 1.607,-0.3 l 0.18,0.755 c -0.372,0.168 -1.007,0.36 -1.931,0.36 -1.787,0 -2.854,-1.176 -2.854,-2.927 0,-1.751 1.032,-3.13 2.723,-3.13 1.895,0 2.399,1.667 2.399,2.734 0,0.216 -0.024,0.384 -0.036,0.491 h -4.079 z m 3.094,-0.755 c 0.012,-0.672 -0.276,-1.716 -1.463,-1.716 -1.067,0 -1.535,0.984 -1.619,1.716 h 3.082 z" /><path
       inkscape:connector-curvature="0"
       id="path176"
       d="m -149.812,1921.479 v 1.667 h 1.511 v 0.804 h -1.511 v 3.13 c 0,0.72 0.204,1.128 0.792,1.128 0.276,0 0.479,-0.036 0.611,-0.072 l 0.048,0.791 c -0.204,0.084 -0.528,0.145 -0.936,0.145 -0.492,0 -0.888,-0.156 -1.14,-0.444 -0.3,-0.312 -0.408,-0.827 -0.408,-1.511 v -3.166 h -0.899 v -0.804 h 0.899 v -1.392 l 1.033,-0.276 z" /><path
       inkscape:connector-curvature="0"
       id="path178"
       d="m -147.255,1927.872 c 0.312,0.203 0.864,0.42 1.392,0.42 0.768,0 1.127,-0.384 1.127,-0.864 0,-0.504 -0.3,-0.779 -1.079,-1.067 -1.043,-0.371 -1.535,-0.947 -1.535,-1.643 0,-0.936 0.755,-1.703 2.003,-1.703 0.587,0 1.103,0.168 1.427,0.359 l -0.264,0.768 c -0.228,-0.144 -0.647,-0.336 -1.187,-0.336 -0.624,0 -0.972,0.36 -0.972,0.792 0,0.479 0.348,0.695 1.104,0.983 1.007,0.384 1.523,0.888 1.523,1.751 0,1.02 -0.792,1.739 -2.171,1.739 -0.635,0 -1.223,-0.156 -1.631,-0.396 l 0.263,-0.803 z" /><path
       inkscape:connector-curvature="0"
       id="path180"
       d="m -139.863,1928.951 c 0.024,-0.396 0.048,-0.983 0.048,-1.499 v -7.017 h 1.043 v 3.646 h 0.024 c 0.372,-0.647 1.043,-1.067 1.979,-1.067 1.439,0 2.458,1.199 2.447,2.962 0,2.075 -1.308,3.106 -2.603,3.106 -0.84,0 -1.511,-0.323 -1.943,-1.091 h -0.036 l -0.048,0.959 h -0.911 z m 1.091,-2.327 c 0,0.133 0.024,0.265 0.048,0.384 0.204,0.732 0.816,1.235 1.583,1.235 1.103,0 1.763,-0.899 1.763,-2.23 0,-1.163 -0.6,-2.159 -1.727,-2.159 -0.72,0 -1.391,0.492 -1.607,1.296 -0.024,0.12 -0.06,0.264 -0.06,0.432 v 1.042 z" /><path
       inkscape:connector-curvature="0"
       id="path182"
       d="m -132.688,1923.146 1.271,3.43 c 0.132,0.384 0.276,0.84 0.372,1.188 h 0.024 c 0.108,-0.348 0.228,-0.791 0.372,-1.211 l 1.151,-3.406 h 1.115 l -1.583,4.138 c -0.756,1.991 -1.271,3.011 -1.991,3.634 -0.516,0.456 -1.031,0.636 -1.295,0.684 l -0.264,-0.888 c 0.264,-0.084 0.612,-0.252 0.924,-0.516 0.288,-0.228 0.647,-0.636 0.887,-1.175 0.048,-0.108 0.084,-0.192 0.084,-0.252 0,-0.061 -0.024,-0.145 -0.072,-0.276 l -2.147,-5.349 h 1.152 z" /><path
       inkscape:connector-curvature="0"
       id="path184"
       d="m -124.839,1920.964 c 0.503,-0.084 1.163,-0.156 2.003,-0.156 1.031,0 1.787,0.24 2.267,0.672 0.444,0.384 0.708,0.972 0.708,1.69 0,0.732 -0.216,1.308 -0.624,1.728 -0.552,0.588 -1.451,0.888 -2.471,0.888 -0.312,0 -0.6,-0.013 -0.839,-0.072 v 3.238 h -1.043 v -7.988 z m 1.043,3.897 c 0.228,0.061 0.516,0.084 0.863,0.084 1.259,0 2.027,-0.611 2.027,-1.727 0,-1.067 -0.755,-1.584 -1.907,-1.584 -0.456,0 -0.804,0.036 -0.983,0.084 v 3.143 z" /><path
       inkscape:connector-curvature="0"
       id="path186"
       d="m -117.508,1921.516 c 0.012,0.359 -0.252,0.647 -0.671,0.647 -0.372,0 -0.636,-0.288 -0.636,-0.647 0,-0.372 0.276,-0.66 0.66,-0.66 0.395,-10e-4 0.647,0.287 0.647,0.66 z m -1.175,7.435 v -5.805 h 1.056 v 5.805 h -1.056 z" /><path
       inkscape:connector-curvature="0"
       id="path188"
       d="m -110.622,1926.001 c 0,2.146 -1.487,3.082 -2.89,3.082 -1.571,0 -2.783,-1.151 -2.783,-2.986 0,-1.942 1.271,-3.082 2.878,-3.082 1.668,0 2.795,1.21 2.795,2.986 z m -4.606,0.059 c 0,1.271 0.732,2.231 1.763,2.231 1.007,0 1.763,-0.948 1.763,-2.255 0,-0.983 -0.492,-2.231 -1.739,-2.231 -1.247,10e-4 -1.787,1.152 -1.787,2.255 z" /><path
       inkscape:connector-curvature="0"
       id="path190"
       d="m -108.016,1921.479 v 1.667 h 1.511 v 0.804 h -1.511 v 3.13 c 0,0.72 0.204,1.128 0.792,1.128 0.276,0 0.479,-0.036 0.611,-0.072 l 0.048,0.791 c -0.204,0.084 -0.528,0.145 -0.936,0.145 -0.492,0 -0.888,-0.156 -1.14,-0.444 -0.3,-0.312 -0.408,-0.827 -0.408,-1.511 v -3.166 h -0.899 v -0.804 h 0.899 v -1.392 l 1.033,-0.276 z" /><path
       inkscape:connector-curvature="0"
       id="path192"
       d="m -105.316,1924.957 c 0,-0.684 -0.012,-1.271 -0.048,-1.811 h 0.923 l 0.036,1.14 h 0.048 c 0.264,-0.78 0.899,-1.271 1.607,-1.271 0.12,0 0.204,0.012 0.3,0.036 v 0.995 c -0.108,-0.024 -0.216,-0.036 -0.36,-0.036 -0.744,0 -1.271,0.563 -1.416,1.355 -0.024,0.144 -0.048,0.312 -0.048,0.491 v 3.095 h -1.043 v -3.994 z" /><path
       inkscape:connector-curvature="0"
       id="path194"
       d="m -98.812,1920.867 h 1.043 v 3.898 h 0.036 c 0.216,-0.312 0.432,-0.6 0.636,-0.863 l 2.471,-3.035 h 1.295 l -2.926,3.431 3.154,4.653 h -1.235 l -2.663,-3.97 -0.768,0.888 v 3.082 h -1.043 v -8.084 z" /><path
       inkscape:connector-curvature="0"
       id="path196"
       d="m -92.116,1923.146 0.768,2.95 c 0.168,0.647 0.324,1.247 0.432,1.847 h 0.036 c 0.132,-0.587 0.324,-1.211 0.516,-1.835 l 0.947,-2.962 h 0.888 l 0.899,2.902 c 0.216,0.695 0.384,1.308 0.516,1.895 h 0.036 c 0.096,-0.587 0.252,-1.199 0.444,-1.883 l 0.828,-2.914 h 1.043 l -1.871,5.805 h -0.959 l -0.888,-2.771 c -0.204,-0.647 -0.372,-1.224 -0.516,-1.907 h -0.024 c -0.144,0.696 -0.324,1.296 -0.528,1.919 l -0.936,2.759 h -0.959 l -1.751,-5.805 h 1.079 z" /><path
       inkscape:connector-curvature="0"
       id="path198"
       d="m -82.528,1921.516 c 0.012,0.359 -0.252,0.647 -0.671,0.647 -0.372,0 -0.636,-0.288 -0.636,-0.647 0,-0.372 0.276,-0.66 0.66,-0.66 0.395,-10e-4 0.647,0.287 0.647,0.66 z m -1.176,7.435 v -5.805 h 1.056 v 5.805 h -1.056 z" /><path
       inkscape:connector-curvature="0"
       id="path200"
       d="m -77.681,1928.951 -0.084,-0.731 h -0.036 c -0.324,0.456 -0.947,0.863 -1.775,0.863 -1.175,0 -1.775,-0.827 -1.775,-1.667 0,-1.403 1.247,-2.171 3.49,-2.159 v -0.119 c 0,-0.48 -0.132,-1.344 -1.319,-1.344 -0.54,0 -1.104,0.168 -1.511,0.432 l -0.24,-0.695 c 0.48,-0.312 1.175,-0.516 1.907,-0.516 1.775,0 2.207,1.211 2.207,2.374 v 2.171 c 0,0.504 0.024,0.996 0.096,1.392 h -0.96 z m -0.157,-2.962 c -1.151,-0.024 -2.458,0.18 -2.458,1.307 0,0.684 0.456,1.008 0.996,1.008 0.755,0 1.235,-0.479 1.403,-0.972 0.036,-0.107 0.06,-0.228 0.06,-0.336 v -1.007 z" /><path
       inkscape:connector-curvature="0"
       id="path202"
       d="m -73.888,1921.479 v 1.667 h 1.511 v 0.804 h -1.511 v 3.13 c 0,0.72 0.204,1.128 0.792,1.128 0.276,0 0.479,-0.036 0.612,-0.072 l 0.048,0.791 c -0.204,0.084 -0.528,0.145 -0.936,0.145 -0.492,0 -0.888,-0.156 -1.14,-0.444 -0.3,-0.312 -0.408,-0.827 -0.408,-1.511 v -3.166 h -0.899 v -0.804 h 0.899 v -1.392 l 1.032,-0.276 z" /><path
       inkscape:connector-curvature="0"
       id="path204"
       d="m -70.145,1925.808 h 0.024 c 0.144,-0.203 0.348,-0.455 0.516,-0.659 l 1.703,-2.003 h 1.271 l -2.243,2.387 2.554,3.418 h -1.283 l -2.003,-2.782 -0.54,0.6 v 2.183 h -1.043 v -8.516 h 1.043 v 5.372 z" /><path
       inkscape:connector-curvature="0"
       id="path206"
       d="m -60.307,1926.001 c 0,2.146 -1.487,3.082 -2.89,3.082 -1.571,0 -2.783,-1.151 -2.783,-2.986 0,-1.942 1.271,-3.082 2.878,-3.082 1.668,0 2.795,1.21 2.795,2.986 z m -4.606,0.059 c 0,1.271 0.732,2.231 1.763,2.231 1.007,0 1.763,-0.948 1.763,-2.255 0,-0.983 -0.492,-2.231 -1.739,-2.231 -1.247,10e-4 -1.787,1.152 -1.787,2.255 z" /><path
       inkscape:connector-curvature="0"
       id="path208"
       d="m -58.636,1923.146 0.768,2.95 c 0.168,0.647 0.324,1.247 0.432,1.847 h 0.036 c 0.132,-0.587 0.324,-1.211 0.516,-1.835 l 0.947,-2.962 h 0.888 l 0.899,2.902 c 0.216,0.695 0.384,1.308 0.516,1.895 h 0.036 c 0.096,-0.587 0.252,-1.199 0.444,-1.883 l 0.828,-2.914 h 1.043 l -1.871,5.805 h -0.959 l -0.888,-2.771 c -0.204,-0.647 -0.372,-1.224 -0.516,-1.907 h -0.024 c -0.144,0.696 -0.324,1.296 -0.528,1.919 l -0.936,2.759 h -0.959 l -1.751,-5.805 h 1.079 z" /><path
       inkscape:connector-curvature="0"
       id="path210"
       d="m -50.44,1927.872 c 0.312,0.203 0.864,0.42 1.392,0.42 0.768,0 1.127,-0.384 1.127,-0.864 0,-0.504 -0.3,-0.779 -1.079,-1.067 -1.043,-0.371 -1.535,-0.947 -1.535,-1.643 0,-0.936 0.755,-1.703 2.003,-1.703 0.587,0 1.104,0.168 1.427,0.359 l -0.264,0.768 c -0.228,-0.144 -0.647,-0.336 -1.187,-0.336 -0.624,0 -0.972,0.36 -0.972,0.792 0,0.479 0.348,0.695 1.104,0.983 1.007,0.384 1.523,0.888 1.523,1.751 0,1.02 -0.792,1.739 -2.171,1.739 -0.635,0 -1.223,-0.156 -1.631,-0.396 l 0.263,-0.803 z" /><path
       inkscape:connector-curvature="0"
       id="path212"
       d="m -44.501,1925.808 h 0.024 c 0.144,-0.203 0.348,-0.455 0.516,-0.659 l 1.703,-2.003 h 1.271 l -2.243,2.387 2.554,3.418 h -1.283 l -2.003,-2.782 -0.54,0.6 v 2.183 h -1.043 v -8.516 h 1.043 v 5.372 z" /><path
       inkscape:connector-curvature="0"
       id="path214"
       d="m -38.537,1921.516 c 0.012,0.359 -0.252,0.647 -0.671,0.647 -0.372,0 -0.636,-0.288 -0.636,-0.647 0,-0.372 0.276,-0.66 0.66,-0.66 0.395,-10e-4 0.647,0.287 0.647,0.66 z m -1.175,7.435 v -5.805 h 1.056 v 5.805 h -1.056 z" /><path
       inkscape:connector-curvature="0"
       id="path216"
       d="m -37.588,1930.427 c 0.264,-0.708 0.588,-1.991 0.72,-2.867 l 1.175,-0.119 c -0.276,1.019 -0.804,2.351 -1.14,2.914 l -0.755,0.072 z" /><path
       inkscape:connector-curvature="0"
       id="path218"
       d="m -31.84,1920.975 c 0.456,-0.096 1.175,-0.168 1.907,-0.168 1.043,0 1.715,0.18 2.219,0.588 0.42,0.312 0.672,0.791 0.672,1.427 0,0.78 -0.516,1.464 -1.367,1.775 v 0.023 c 0.768,0.192 1.667,0.828 1.667,2.027 0,0.695 -0.276,1.224 -0.684,1.619 -0.564,0.516 -1.475,0.756 -2.794,0.756 -0.72,0 -1.271,-0.048 -1.619,-0.097 v -7.95 z m 1.043,3.311 h 0.947 c 1.104,0 1.751,-0.576 1.751,-1.355 0,-0.947 -0.719,-1.319 -1.775,-1.319 -0.479,0 -0.755,0.036 -0.923,0.072 v 2.602 z m 0,3.873 c 0.204,0.036 0.503,0.049 0.875,0.049 1.079,0 2.075,-0.396 2.075,-1.571 0,-1.104 -0.947,-1.56 -2.087,-1.56 h -0.863 v 3.082 z" /><path
       inkscape:connector-curvature="0"
       id="path220"
       d="m -20.515,1927.368 c 0,0.6 0.012,1.127 0.048,1.583 h -0.936 l -0.06,-0.947 h -0.024 c -0.276,0.468 -0.887,1.079 -1.919,1.079 -0.911,0 -2.003,-0.504 -2.003,-2.543 v -3.394 h 1.056 v 3.214 c 0,1.104 0.336,1.848 1.295,1.848 0.708,0 1.199,-0.492 1.391,-0.96 0.06,-0.156 0.096,-0.348 0.096,-0.54 v -3.562 h 1.056 v 4.222 z" /><path
       inkscape:connector-curvature="0"
       id="path222"
       d="m -13.748,1920.435 v 7.017 c 0,0.516 0.012,1.104 0.048,1.499 h -0.947 l -0.048,-1.008 h -0.024 c -0.324,0.648 -1.032,1.14 -1.979,1.14 -1.403,0 -2.483,-1.188 -2.483,-2.95 -0.012,-1.931 1.188,-3.118 2.603,-3.118 0.888,0 1.487,0.42 1.751,0.888 h 0.024 v -3.467 h 1.055 z m -1.055,5.074 c 0,-0.132 -0.012,-0.312 -0.048,-0.443 -0.156,-0.672 -0.731,-1.224 -1.523,-1.224 -1.091,0 -1.739,0.96 -1.739,2.243 0,1.175 0.576,2.146 1.715,2.146 0.708,0 1.355,-0.468 1.547,-1.259 0.036,-0.145 0.048,-0.288 0.048,-0.456 v -1.007 z" /><path
       inkscape:connector-curvature="0"
       id="path224"
       d="m -10.818,1921.516 c 0.012,0.359 -0.252,0.647 -0.671,0.647 -0.372,0 -0.636,-0.288 -0.636,-0.647 0,-0.372 0.276,-0.66 0.66,-0.66 0.396,-10e-4 0.647,0.287 0.647,0.66 z m -1.175,7.435 v -5.805 h 1.056 v 5.805 h -1.056 z" /><path
       inkscape:connector-curvature="0"
       id="path226"
       d="m -5.562,1921.755 h -2.459 v -0.888 h 5.985 v 0.888 h -2.471 v 7.196 h -1.055 v -7.196 z" /><path
       inkscape:connector-curvature="0"
       id="path228"
       d="M 1.278,1928.951 1.194,1928.22 H 1.158 c -0.324,0.456 -0.947,0.863 -1.775,0.863 -1.175,0 -1.775,-0.827 -1.775,-1.667 0,-1.403 1.247,-2.171 3.49,-2.159 v -0.119 c 0,-0.48 -0.132,-1.344 -1.319,-1.344 -0.54,0 -1.104,0.168 -1.511,0.432 l -0.24,-0.695 c 0.48,-0.312 1.175,-0.516 1.907,-0.516 1.775,0 2.207,1.211 2.207,2.374 v 2.171 c 0,0.504 0.024,0.996 0.096,1.392 h -0.96 z m -0.157,-2.962 c -1.151,-0.024 -2.458,0.18 -2.458,1.307 0,0.684 0.456,1.008 0.996,1.008 0.755,0 1.235,-0.479 1.403,-0.972 0.036,-0.107 0.06,-0.228 0.06,-0.336 v -1.007 z" /><path
       inkscape:connector-curvature="0"
       id="path230"
       d="m 3.847,1924.718 c 0,-0.6 -0.012,-1.092 -0.048,-1.571 h 0.936 l 0.06,0.959 h 0.024 c 0.288,-0.552 0.959,-1.091 1.919,-1.091 0.803,0 2.051,0.479 2.051,2.471 v 3.466 H 7.733 v -3.346 c 0,-0.936 -0.348,-1.716 -1.343,-1.716 -0.695,0 -1.235,0.492 -1.415,1.08 -0.048,0.132 -0.072,0.312 -0.072,0.491 v 3.49 H 3.847 v -4.233 z" /><path
       inkscape:connector-curvature="0"
       id="path232"
       d="m 10.507,1924.957 c 0,-0.684 -0.012,-1.271 -0.048,-1.811 h 0.923 l 0.036,1.14 h 0.048 c 0.264,-0.78 0.899,-1.271 1.607,-1.271 0.12,0 0.204,0.012 0.3,0.036 v 0.995 c -0.108,-0.024 -0.216,-0.036 -0.359,-0.036 -0.744,0 -1.271,0.563 -1.416,1.355 -0.024,0.144 -0.048,0.312 -0.048,0.491 v 3.095 h -1.043 v -3.994 z" /><path
       inkscape:connector-curvature="0"
       id="path234"
       d="m 15.654,1921.516 c 0.012,0.359 -0.252,0.647 -0.671,0.647 -0.372,0 -0.636,-0.288 -0.636,-0.647 0,-0.372 0.276,-0.66 0.66,-0.66 0.395,-10e-4 0.647,0.287 0.647,0.66 z m -1.175,7.435 v -5.805 h 1.056 v 5.805 h -1.056 z" /><path
       inkscape:connector-curvature="0"
       id="path236"
       d="m 17.287,1924.718 c 0,-0.6 -0.012,-1.092 -0.048,-1.571 h 0.923 l 0.048,0.936 h 0.036 c 0.324,-0.552 0.864,-1.067 1.823,-1.067 0.792,0 1.391,0.479 1.643,1.163 h 0.024 c 0.18,-0.324 0.408,-0.575 0.647,-0.756 0.348,-0.264 0.731,-0.407 1.283,-0.407 0.768,0 1.907,0.504 1.907,2.519 v 3.418 h -1.032 v -3.286 c 0,-1.115 -0.408,-1.787 -1.259,-1.787 -0.6,0 -1.067,0.443 -1.247,0.96 -0.048,0.144 -0.084,0.335 -0.084,0.527 v 3.586 H 20.92 v -3.479 c 0,-0.923 -0.408,-1.595 -1.211,-1.595 -0.66,0 -1.14,0.527 -1.308,1.056 -0.06,0.155 -0.084,0.336 -0.084,0.516 v 3.502 h -1.031 v -4.235 z" /><path
       inkscape:connector-curvature="0"
       id="path238"
       d="m 26.611,1930.427 c 0.264,-0.708 0.588,-1.991 0.72,-2.867 l 1.175,-0.119 c -0.276,1.019 -0.804,2.351 -1.14,2.914 l -0.755,0.072 z" /><path
       inkscape:connector-curvature="0"
       id="path240"
       d="m 33.702,1928.951 -2.639,-8.084 h 1.127 l 1.259,3.982 c 0.348,1.091 0.648,2.074 0.864,3.022 h 0.024 c 0.228,-0.936 0.563,-1.955 0.923,-3.011 l 1.367,-3.994 h 1.116 l -2.891,8.084 h -1.15 z" /><path
       inkscape:connector-curvature="0"
       id="path242"
       d="m 39.57,1921.516 c 0.012,0.359 -0.252,0.647 -0.671,0.647 -0.372,0 -0.636,-0.288 -0.636,-0.647 0,-0.372 0.276,-0.66 0.66,-0.66 0.395,-10e-4 0.647,0.287 0.647,0.66 z m -1.175,7.435 v -5.805 h 1.056 v 5.805 h -1.056 z" /><path
       inkscape:connector-curvature="0"
       id="path244"
       d="m 41.059,1927.872 c 0.312,0.203 0.864,0.42 1.392,0.42 0.768,0 1.127,-0.384 1.127,-0.864 0,-0.504 -0.3,-0.779 -1.079,-1.067 -1.043,-0.371 -1.535,-0.947 -1.535,-1.643 0,-0.936 0.755,-1.703 2.003,-1.703 0.587,0 1.104,0.168 1.427,0.359 l -0.264,0.768 c -0.228,-0.144 -0.647,-0.336 -1.187,-0.336 -0.624,0 -0.972,0.36 -0.972,0.792 0,0.479 0.348,0.695 1.104,0.983 1.007,0.384 1.523,0.888 1.523,1.751 0,1.02 -0.792,1.739 -2.171,1.739 -0.635,0 -1.223,-0.156 -1.631,-0.396 l 0.263,-0.803 z" /><path
       inkscape:connector-curvature="0"
       id="path246"
       d="m 50.812,1927.368 c 0,0.6 0.012,1.127 0.048,1.583 h -0.936 l -0.06,-0.947 H 49.84 c -0.276,0.468 -0.887,1.079 -1.919,1.079 -0.911,0 -2.003,-0.504 -2.003,-2.543 v -3.394 h 1.056 v 3.214 c 0,1.104 0.336,1.848 1.295,1.848 0.708,0 1.199,-0.492 1.391,-0.96 0.06,-0.156 0.096,-0.348 0.096,-0.54 v -3.562 h 1.056 v 4.222 z" /><path
       inkscape:connector-curvature="0"
       id="path248"
       d="m 55.781,1928.951 -0.084,-0.731 h -0.036 c -0.324,0.456 -0.947,0.863 -1.775,0.863 -1.175,0 -1.775,-0.827 -1.775,-1.667 0,-1.403 1.247,-2.171 3.49,-2.159 v -0.119 c 0,-0.48 -0.132,-1.344 -1.319,-1.344 -0.54,0 -1.103,0.168 -1.511,0.432 l -0.24,-0.695 c 0.48,-0.312 1.176,-0.516 1.907,-0.516 1.775,0 2.207,1.211 2.207,2.374 v 2.171 c 0,0.504 0.024,0.996 0.096,1.392 h -0.96 z m -0.156,-2.962 c -1.151,-0.024 -2.459,0.18 -2.459,1.307 0,0.684 0.456,1.008 0.996,1.008 0.755,0 1.235,-0.479 1.403,-0.972 0.036,-0.107 0.06,-0.228 0.06,-0.336 v -1.007 z" /><path
       inkscape:connector-curvature="0"
       id="path250"
       d="m 58.35,1920.435 h 1.056 v 8.516 H 58.35 v -8.516 z" /><path
       inkscape:connector-curvature="0"
       id="path252"
       d="m 64.806,1920.867 v 8.084 h -1.043 v -8.084 h 1.043 z" /><path
       inkscape:connector-curvature="0"
       id="path254"
       d="m 71.608,1920.435 v 7.017 c 0,0.516 0.012,1.104 0.048,1.499 h -0.947 l -0.048,-1.008 h -0.024 c -0.324,0.648 -1.032,1.14 -1.979,1.14 -1.403,0 -2.483,-1.188 -2.483,-2.95 -0.012,-1.931 1.188,-3.118 2.603,-3.118 0.888,0 1.487,0.42 1.751,0.888 h 0.024 v -3.467 h 1.055 z m -1.055,5.074 c 0,-0.132 -0.012,-0.312 -0.048,-0.443 -0.156,-0.672 -0.731,-1.224 -1.523,-1.224 -1.091,0 -1.739,0.96 -1.739,2.243 0,1.175 0.576,2.146 1.715,2.146 0.708,0 1.355,-0.468 1.547,-1.259 0.036,-0.145 0.048,-0.288 0.048,-0.456 v -1.007 z" /><path
       inkscape:connector-curvature="0"
       id="path256"
       d="m 74.537,1921.516 c 0.012,0.359 -0.252,0.647 -0.671,0.647 -0.372,0 -0.636,-0.288 -0.636,-0.647 0,-0.372 0.276,-0.66 0.66,-0.66 0.395,-10e-4 0.647,0.287 0.647,0.66 z m -1.175,7.435 v -5.805 h 1.056 v 5.805 h -1.056 z" /><path
       inkscape:connector-curvature="0"
       id="path258"
       d="m 81.423,1926.001 c 0,2.146 -1.487,3.082 -2.89,3.082 -1.571,0 -2.783,-1.151 -2.783,-2.986 0,-1.942 1.271,-3.082 2.878,-3.082 1.668,0 2.795,1.21 2.795,2.986 z m -4.605,0.059 c 0,1.271 0.732,2.231 1.763,2.231 1.007,0 1.763,-0.948 1.763,-2.255 0,-0.983 -0.492,-2.231 -1.739,-2.231 -1.247,10e-4 -1.787,1.152 -1.787,2.255 z" /><path
       inkscape:connector-curvature="0"
       id="path260"
       d="m 84.03,1921.479 v 1.667 h 1.511 v 0.804 H 84.03 v 3.13 c 0,0.72 0.204,1.128 0.792,1.128 0.276,0 0.479,-0.036 0.612,-0.072 l 0.048,0.791 c -0.204,0.084 -0.528,0.145 -0.936,0.145 -0.492,0 -0.888,-0.156 -1.14,-0.444 -0.3,-0.312 -0.408,-0.827 -0.408,-1.511 v -3.166 h -0.899 v -0.804 h 0.899 v -1.392 l 1.032,-0.276 z" /><path
       inkscape:connector-curvature="0"
       id="path262"
       d="m 88.386,1929.431 3.346,-8.695 h 0.816 l -3.358,8.695 h -0.804 z" /><path
       inkscape:connector-curvature="0"
       id="path264"
       d="m 101.618,1928.687 c -0.384,0.191 -1.151,0.384 -2.135,0.384 -2.279,0 -3.994,-1.439 -3.994,-4.09 0,-2.53 1.715,-4.246 4.222,-4.246 1.008,0 1.643,0.216 1.919,0.36 l -0.252,0.852 c -0.396,-0.192 -0.959,-0.336 -1.631,-0.336 -1.895,0 -3.154,1.211 -3.154,3.334 0,1.979 1.139,3.25 3.106,3.25 0.636,0 1.283,-0.132 1.703,-0.336 l 0.216,0.828 z" /><path
       inkscape:connector-curvature="0"
       id="path266"
       d="m 108.327,1928.687 c -0.384,0.191 -1.151,0.384 -2.135,0.384 -2.279,0 -3.994,-1.439 -3.994,-4.09 0,-2.53 1.715,-4.246 4.222,-4.246 1.008,0 1.643,0.216 1.919,0.36 l -0.252,0.852 c -0.396,-0.192 -0.959,-0.336 -1.631,-0.336 -1.895,0 -3.154,1.211 -3.154,3.334 0,1.979 1.139,3.25 3.106,3.25 0.636,0 1.283,-0.132 1.703,-0.336 l 0.216,0.828 z" /><path
       inkscape:connector-curvature="0"
       id="path268"
       d="m 112.181,1920.975 c 0.456,-0.096 1.175,-0.168 1.907,-0.168 1.043,0 1.715,0.18 2.219,0.588 0.42,0.312 0.672,0.791 0.672,1.427 0,0.78 -0.516,1.464 -1.367,1.775 v 0.023 c 0.768,0.192 1.667,0.828 1.667,2.027 0,0.695 -0.276,1.224 -0.684,1.619 -0.564,0.516 -1.475,0.756 -2.794,0.756 -0.72,0 -1.271,-0.048 -1.619,-0.097 v -7.95 z m 1.044,3.311 h 0.947 c 1.104,0 1.751,-0.576 1.751,-1.355 0,-0.947 -0.72,-1.319 -1.775,-1.319 -0.48,0 -0.755,0.036 -0.923,0.072 v 2.602 z m 0,3.873 c 0.204,0.036 0.503,0.049 0.875,0.049 1.079,0 2.075,-0.396 2.075,-1.571 0,-1.104 -0.947,-1.56 -2.087,-1.56 h -0.863 v 3.082 z" /><path
       inkscape:connector-curvature="0"
       id="path270"
       d="m 120.304,1928.951 v -3.43 l -2.555,-4.654 h 1.188 l 1.139,2.231 c 0.312,0.611 0.552,1.104 0.804,1.667 h 0.024 c 0.228,-0.528 0.504,-1.056 0.815,-1.667 l 1.164,-2.231 h 1.188 l -2.71,4.642 v 3.442 h -1.057 z" /></g><path
     style="fill:#383838"
     inkscape:connector-curvature="0"
     id="path274"
     d="M 13.94,15.437 10.904,11.268 C 12.189,10.079 13,8.384 13,6.5 13,2.916 10.084,0 6.4999998,0 2.9159998,0 -2.4007761e-7,2.916 -2.4007761e-7,6.5 -2.4007761e-7,10.084 2.9159998,13 6.4999998,13 c 0.615,0 1.207,-0.091 1.771,-0.252 L 11.515,17.203 c 0.333,0.457 0.876,0.671 1.401,0.605 0.243,-0.031 0.482,-0.122 0.695,-0.276 0.669,-0.487 0.816,-1.425 0.329,-2.095 z M 1.9999998,6.5 c 0,-2.481 2.019,-4.5 4.5,-4.5 C 8.9809998,2 11,4.019 11,6.5 11,8.981 8.9809998,11 6.4999998,11 c -2.481,0 -4.5,-2.019 -4.5,-4.5 z" /></svg>